<?xml version="1.0" encoding="iso-8859-1"?>
<!-- Generator: Adobe Illustrator 19.0.0, SVG Export Plug-In . SVG Version: 6.00 Build 0)  -->
<svg version="1.1" id="Layer_1" xmlns="http://www.w3.org/2000/svg" xmlns:xlink="http://www.w3.org/1999/xlink" x="0px" y="0px"
	 viewBox="0 0 491.54 491.54" style="enable-background:new 0 0 491.54 491.54;" xml:space="preserve">
<path style="fill:#3A556A;" d="M409.579,279.085H254.697V175.816h-17.873v103.269H81.949c-19.924,0-36.131,16.207-36.131,36.122
	V436.77h17.873V315.207c0-10.062,8.186-18.249,18.258-18.249h154.874V431.15h17.873V296.958h154.882
	c10.063,0,18.249,8.187,18.249,18.249V436.77h17.873V315.207C445.701,295.292,429.495,279.085,409.579,279.085z"/>
<path style="fill:#64798A;" d="M462.919,0H28.601C12.805,0,0,12.805,0,28.6v146.186c0,15.796,12.805,28.601,28.601,28.601h434.318
	c15.796,0,28.601-12.805,28.601-28.601V28.6C491.52,12.805,478.714,0,462.919,0z"/>
<rect x="23.04" y="27.576" style="fill:#44C4A1;" width="67.907" height="27.53"/>
<rect x="128.973" y="27.576" style="fill:#E56353;" width="42.061" height="27.53"/>
<rect x="404.122" y="27.576" style="fill:#27A2DB;" width="42.061" height="27.53"/>
<g>
	<rect x="215.603" y="27.576" style="fill:#FCD462;" width="129.725" height="27.53"/>
	<rect x="23.04" y="87.91" style="fill:#FCD462;" width="88.678" height="27.53"/>
</g>
<rect x="163.942" y="87.91" style="fill:#44C4A1;" width="47.135" height="27.53"/>
<g>
	<rect x="267.827" y="87.91" style="fill:#E1E6E9;" width="47.124" height="27.53"/>
	<rect x="367.104" y="87.91" style="fill:#E1E6E9;" width="101.35" height="27.53"/>
	<rect x="23.04" y="148.285" style="fill:#E1E6E9;" width="44.339" height="27.53"/>
</g>
<rect x="106.783" y="148.285" style="fill:#27A2DB;" width="44.339" height="27.53"/>
<rect x="348.518" y="148.285" style="fill:#E1E6E9;" width="44.339" height="27.53"/>
<rect x="190.515" y="148.285" style="fill:#E56353;" width="80.824" height="27.53"/>
<circle style="fill:#FCD462;" cx="54.753" cy="436.787" r="54.753"/>
<circle style="fill:#44C4A1;" cx="245.76" cy="436.787" r="54.753"/>
<circle style="fill:#27A2DB;" cx="436.787" cy="436.787" r="54.753"/>
<path style="fill:#2D93BA;" d="M467.535,391.481c4.29,7.812,6.741,16.776,6.741,26.318c0,30.237-24.513,54.752-54.752,54.752
	c-11.409,0-21.997-3.497-30.766-9.467c9.308,16.944,27.313,28.436,48.011,28.436c30.238,0,54.751-24.513,54.751-54.753
	C491.52,417.939,482.009,401.335,467.535,391.481z"/>
<path style="fill:#3EA69B;" d="M276.526,391.481c4.291,7.811,6.741,16.776,6.741,26.317c0,30.237-24.513,54.752-54.752,54.752
	c-11.409,0-21.997-3.497-30.766-9.466c9.308,16.944,27.313,28.436,48.011,28.436c30.237,0,54.751-24.514,54.751-54.753
	C300.512,417.938,291.001,401.334,276.526,391.481z"/>
<path style="fill:#F6C358;" d="M85.518,391.481c4.291,7.811,6.741,16.776,6.741,26.317c0,30.237-24.514,54.752-54.752,54.752
	c-11.409,0-21.997-3.497-30.767-9.466c9.308,16.944,27.313,28.436,48.012,28.436c30.237,0,54.75-24.514,54.75-54.753
	C109.503,417.938,99.992,401.334,85.518,391.481z"/>
<g>
</g>
<g>
</g>
<g>
</g>
<g>
</g>
<g>
</g>
<g>
</g>
<g>
</g>
<g>
</g>
<g>
</g>
<g>
</g>
<g>
</g>
<g>
</g>
<g>
</g>
<g>
</g>
<g>
</g>
</svg>
